<svg width="36" height="36" viewBox="0 0 36 36" fill="none" xmlns="http://www.w3.org/2000/svg">
<g clip-path="url(#clip0_329_1262)">
<path d="M18.0059 0C10.491 0 8.29324 0.00775548 7.86602 0.0431999C6.32386 0.171426 5.36423 0.414312 4.31875 0.934957C3.51307 1.33516 2.87764 1.79904 2.25053 2.44931C1.10844 3.6352 0.416261 5.09414 0.165687 6.82839C0.04387 7.67031 0.00842533 7.84201 0.00122759 12.1424C-0.00153449 13.5759 0.00122759 15.4625 0.00122759 17.9929C0.00122759 25.5037 0.00952739 27.6999 0.0455297 28.1264C0.170123 29.6275 0.405457 30.5718 0.903829 31.6049C1.85627 33.5823 3.6753 35.0667 5.81829 35.6206C6.56031 35.8117 7.37984 35.9169 8.43195 35.9668C8.87772 35.9861 13.4212 36 17.9674 36C22.5136 36 27.0598 35.9945 27.4945 35.9723C28.7128 35.915 29.4202 35.82 30.2023 35.6178C32.3592 35.0611 34.145 33.5989 35.1168 31.5938C35.6055 30.5857 35.8533 29.6053 35.9654 28.1826C35.9898 27.8725 36 22.927 36 17.9882C36 13.0486 35.9889 8.11231 35.9646 7.80213C35.851 6.35647 35.6032 5.38439 35.0988 4.35691C34.6849 3.51583 34.2253 2.88771 33.558 2.24549C32.3672 1.10778 30.9108 0.415414 29.1754 0.165058C28.3345 0.0434722 28.1671 0.00746986 23.8645 0H18.0059Z" fill="url(#paint0_radial_329_1262)"/>
<path d="M18.0059 0C10.491 0 8.29324 0.00775548 7.86602 0.0431999C6.32386 0.171426 5.36423 0.414312 4.31875 0.934957C3.51307 1.33516 2.87764 1.79904 2.25053 2.44931C1.10844 3.6352 0.416261 5.09414 0.165687 6.82839C0.04387 7.67031 0.00842533 7.84201 0.00122759 12.1424C-0.00153449 13.5759 0.00122759 15.4625 0.00122759 17.9929C0.00122759 25.5037 0.00952739 27.6999 0.0455297 28.1264C0.170123 29.6275 0.405457 30.5718 0.903829 31.6049C1.85627 33.5823 3.6753 35.0667 5.81829 35.6206C6.56031 35.8117 7.37984 35.9169 8.43195 35.9668C8.87772 35.9861 13.4212 36 17.9674 36C22.5136 36 27.0598 35.9945 27.4945 35.9723C28.7128 35.915 29.4202 35.82 30.2023 35.6178C32.3592 35.0611 34.145 33.5989 35.1168 31.5938C35.6055 30.5857 35.8533 29.6053 35.9654 28.1826C35.9898 27.8725 36 22.927 36 17.9882C36 13.0486 35.9889 8.11231 35.9646 7.80213C35.851 6.35647 35.6032 5.38439 35.0988 4.35691C34.6849 3.51583 34.2253 2.88771 33.558 2.24549C32.3672 1.10778 30.9108 0.415414 29.1754 0.165058C28.3345 0.0434722 28.1671 0.00746986 23.8645 0H18.0059Z" fill="url(#paint1_radial_329_1262)"/>
<path d="M18.0059 0C10.491 0 8.29324 0.00775548 7.86602 0.0431999C6.32386 0.171426 5.36423 0.414312 4.31875 0.934957C3.51307 1.33516 2.87764 1.79904 2.25053 2.44931C1.10844 3.6352 0.416261 5.09414 0.165687 6.82839C0.04387 7.67031 0.00842533 7.84201 0.00122759 12.1424C-0.00153449 13.5759 0.00122759 15.4625 0.00122759 17.9929C0.00122759 25.5037 0.00952739 27.6999 0.0455297 28.1264C0.170123 29.6275 0.405457 30.5718 0.903829 31.6049C1.85627 33.5823 3.6753 35.0667 5.81829 35.6206C6.56031 35.8117 7.37984 35.9169 8.43195 35.9668C8.87772 35.9861 13.4212 36 17.9674 36C22.5136 36 27.0598 35.9945 27.4945 35.9723C28.7128 35.915 29.4202 35.82 30.2023 35.6178C32.3592 35.0611 34.145 33.5989 35.1168 31.5938C35.6055 30.5857 35.8533 29.6053 35.9654 28.1826C35.9898 27.8725 36 22.927 36 17.9882C36 13.0486 35.9889 8.11231 35.9646 7.80213C35.851 6.35647 35.6032 5.38439 35.0988 4.35691C34.6849 3.51583 34.2253 2.88771 33.558 2.24549C32.3672 1.10778 30.9108 0.415414 29.1754 0.165058C28.3345 0.0434722 28.1671 0.00746986 23.8645 0H18.0059Z" fill="url(#paint2_radial_329_1262)"/>
<path d="M18.0059 0C10.491 0 8.29324 0.00775548 7.86602 0.0431999C6.32386 0.171426 5.36423 0.414312 4.31875 0.934957C3.51307 1.33516 2.87764 1.79904 2.25053 2.44931C1.10844 3.6352 0.416261 5.09414 0.165687 6.82839C0.04387 7.67031 0.00842533 7.84201 0.00122759 12.1424C-0.00153449 13.5759 0.00122759 15.4625 0.00122759 17.9929C0.00122759 25.5037 0.00952739 27.6999 0.0455297 28.1264C0.170123 29.6275 0.405457 30.5718 0.903829 31.6049C1.85627 33.5823 3.6753 35.0667 5.81829 35.6206C6.56031 35.8117 7.37984 35.9169 8.43195 35.9668C8.87772 35.9861 13.4212 36 17.9674 36C22.5136 36 27.0598 35.9945 27.4945 35.9723C28.7128 35.915 29.4202 35.82 30.2023 35.6178C32.3592 35.0611 34.145 33.5989 35.1168 31.5938C35.6055 30.5857 35.8533 29.6053 35.9654 28.1826C35.9898 27.8725 36 22.927 36 17.9882C36 13.0486 35.9889 8.11231 35.9646 7.80213C35.851 6.35647 35.6032 5.38439 35.0988 4.35691C34.6849 3.51583 34.2253 2.88771 33.558 2.24549C32.3672 1.10778 30.9108 0.415414 29.1754 0.165058C28.3345 0.0434722 28.1671 0.00746986 23.8645 0H18.0059Z" fill="url(#paint3_radial_329_1262)"/>
<path d="M18.0073 4.625C14.3721 4.625 13.9159 4.64088 12.4882 4.70581C11.0632 4.77101 10.0906 4.99644 9.23949 5.32721C8.35915 5.66882 7.61237 6.1258 6.86839 6.86951C6.12386 7.61296 5.66652 8.35917 5.32353 9.23858C4.99169 10.0893 4.76581 11.0615 4.70168 12.4848C4.63783 13.9115 4.62109 14.3677 4.62109 18.0001C4.62109 21.6326 4.63727 22.0871 4.70196 23.5137C4.7675 24.9376 4.99309 25.9096 5.3238 26.76C5.66596 27.6397 6.12328 28.3859 6.86755 29.1294C7.61127 29.8733 8.35804 30.3315 9.23782 30.6731C10.0894 31.0038 11.0624 31.2293 12.487 31.2945C13.9148 31.3594 14.3707 31.3753 18.0056 31.3753C21.641 31.3753 22.0959 31.3594 23.5236 31.2945C24.9486 31.2292 25.9223 31.0038 26.7739 30.6731C27.654 30.3315 28.3997 29.8733 29.1434 29.1294C29.8879 28.3859 30.3453 27.6397 30.6882 26.7603C31.0173 25.9096 31.2432 24.9374 31.3101 23.514C31.3742 22.0874 31.3909 21.6326 31.3909 18.0001C31.3909 14.3677 31.3742 13.9118 31.3101 12.4851C31.2432 11.0612 31.0173 10.0893 30.6882 9.23887C30.3453 8.35917 29.8879 7.61294 29.1434 6.86951C28.3988 6.12552 27.6543 5.66854 26.7731 5.32719C25.9198 4.99644 24.9466 4.77101 23.5217 4.70581C22.0939 4.64088 21.6394 4.625 18.0031 4.625H18.0073ZM16.8065 7.03532C17.1629 7.03476 17.5606 7.03532 18.0073 7.03532C21.5811 7.03532 22.0047 7.04813 23.416 7.11222C24.721 7.17185 25.4293 7.38975 25.9011 7.57282C26.5258 7.81524 26.9711 8.10504 27.4393 8.57317C27.9078 9.04131 28.1978 9.48714 28.4409 10.1113C28.6241 10.5822 28.8425 11.29 28.9019 12.5941C28.966 14.004 28.98 14.4276 28.98 17.9971C28.98 21.5665 28.966 21.9901 28.9019 23.4001C28.8422 24.7041 28.6241 25.4119 28.4409 25.8828C28.1983 26.507 27.9078 26.9514 27.4393 27.4193C26.9708 27.8874 26.526 28.1772 25.9011 28.4196C25.4299 28.6035 24.721 28.8209 23.416 28.8805C22.005 28.9446 21.5811 28.9585 18.0073 28.9585C14.4332 28.9585 14.0096 28.9446 12.5986 28.8805C11.2936 28.8203 10.5853 28.6024 10.1132 28.4194C9.48852 28.1769 9.04234 27.8871 8.57387 27.419C8.1054 26.9509 7.81539 26.5062 7.57222 25.8817C7.38901 25.4108 7.17067 24.703 7.11128 23.3989C7.04714 21.989 7.03431 21.5654 7.03431 17.9937C7.03431 14.422 7.04714 14.0007 7.11128 12.5907C7.17096 11.2866 7.38901 10.5789 7.57222 10.1074C7.81482 9.48324 8.1054 9.0374 8.57387 8.56928C9.04234 8.10114 9.48852 7.81135 10.1132 7.56837C10.585 7.38445 11.2936 7.16712 12.5986 7.1072C13.8334 7.05147 14.3119 7.03476 16.8065 7.03195L16.8065 7.03532ZM25.1521 9.25614C24.2654 9.25614 23.5459 9.97422 23.5459 10.8606C23.5459 11.7467 24.2654 12.4656 25.1521 12.4656C26.0389 12.4656 26.7583 11.7467 26.7583 10.8606C26.7583 9.97449 26.0389 9.25559 25.1521 9.25559L25.1521 9.25614ZM18.0073 11.1314C14.2112 11.1314 11.1335 14.2069 11.1335 18.0001C11.1335 21.7934 14.2112 24.8674 18.0073 24.8674C21.8033 24.8674 24.88 21.7934 24.88 18.0001C24.88 14.2069 21.8031 11.1314 18.007 11.1314H18.0073ZM18.0073 13.5418C20.4712 13.5418 22.469 15.5377 22.469 18.0001C22.469 20.4623 20.4712 22.4585 18.0073 22.4585C15.543 22.4585 13.5456 20.4623 13.5456 18.0001C13.5456 15.5377 15.543 13.5418 18.0073 13.5418Z" fill="white"/>
</g>
<defs>
<radialGradient id="paint0_radial_329_1262" cx="0" cy="0" r="1" gradientTransform="matrix(-22.1384 6.24354 -4.49824 -15.9496 34.8376 16.8736)" gradientUnits="userSpaceOnUse">
<stop stop-color="#FF005F"/>
<stop offset="1" stop-color="#FC01D8"/>
</radialGradient>
<radialGradient id="paint1_radial_329_1262" cx="0" cy="0" r="1" gradientUnits="userSpaceOnUse" gradientTransform="translate(9.56223 38.7727) rotate(-90) scale(28.7359 30.4882)">
<stop stop-color="#FFCC00"/>
<stop offset="0.1242" stop-color="#FFCC00"/>
<stop offset="0.5672" stop-color="#FE4A05"/>
<stop offset="0.6942" stop-color="#FF0F3F"/>
<stop offset="1" stop-color="#FE0657" stop-opacity="0"/>
</radialGradient>
<radialGradient id="paint2_radial_329_1262" cx="0" cy="0" r="1" gradientTransform="matrix(5.96455 -10.2771 13.3796 7.7652 18.9097 35.4923)" gradientUnits="userSpaceOnUse">
<stop stop-color="#FFCC00"/>
<stop offset="1" stop-color="#FFCC00" stop-opacity="0"/>
</radialGradient>
<radialGradient id="paint3_radial_329_1262" cx="0" cy="0" r="1" gradientTransform="matrix(-21.8953 6.16536 -2.1 -7.45988 4.88443 1.46591)" gradientUnits="userSpaceOnUse">
<stop stop-color="#780CFF"/>
<stop offset="1" stop-color="#820BFF" stop-opacity="0"/>
</radialGradient>
<clipPath id="clip0_329_1262">
<rect width="36" height="36" fill="white"/>
</clipPath>
</defs>
</svg>
